<?xml version="1.0" encoding="utf-8"?>
<!-- Generator: Adobe Illustrator 24.1.0, SVG Export Plug-In . SVG Version: 6.00 Build 0)  -->
<svg version="1.1" id="图层_1" xmlns="http://www.w3.org/2000/svg" xmlns:xlink="http://www.w3.org/1999/xlink" x="0px" y="0px"
	 viewBox="0 0 67.56 91.03" style="enable-background:new 0 0 67.56 91.03;" xml:space="preserve">
<style type="text/css">
	.st0{opacity:0.7;fill:#B17E59;}
	.st1{opacity:0.4;fill:#B17E59;}
	.st2{fill:#B17E59;}
	.st3{fill:url(#SVGID_1_);}
	.st4{opacity:0.7;fill:#C9A066;}
	.st5{opacity:0.4;fill:#C9A066;}
	.st6{fill:#C9A066;}
</style>
<g>
	<path class="st0" d="M11.49,87.67L11.49,87.67c-1.1,0-1.98-0.89-1.98-1.98V13.97h1.93c1.13,0,2.04,0.91,2.04,2.04v69.68
		C13.48,86.78,12.59,87.67,11.49,87.67z"/>
	<path class="st1" d="M4.49,87.67L4.49,87.67c-1.09,0-1.98-0.89-1.98-1.98V25.3h1.93c1.13,0,2.04,0.91,2.04,2.04v58.34
		C6.48,86.77,5.59,87.67,4.49,87.67z"/>
	<g>
		<path class="st2" d="M18.54,87.67L18.54,87.67c-1.12,0-2.03-0.91-2.03-2.03V2.63h1.93c1.12,0,2.03,0.91,2.03,2.03v81.07
			C20.48,86.8,19.61,87.67,18.54,87.67z"/>
		<path class="st2" d="M17.5,87.4L17.5,87.4c-0.95-0.55-1.27-1.76-0.73-2.71L31.8,58.67c0.55-0.95,1.76-1.27,2.71-0.73l0,0
			c0.95,0.55,1.27,1.76,0.73,2.71L20.21,86.68C19.66,87.62,18.45,87.95,17.5,87.4z"/>
	</g>
	<linearGradient id="SVGID_1_" gradientUnits="userSpaceOnUse" x1="23.9811" y1="75.7757" x2="34.7594" y2="57.8673">
		<stop  offset="0.4608" style="stop-color:#B17E59"/>
		<stop  offset="1" style="stop-color:#6C4F22"/>
	</linearGradient>
	<polygon class="st3" points="31.8,58.67 25.86,68.96 27.54,73.98 34.15,62.53 	"/>
	<path class="st4" d="M55.6,87.67L55.6,87.67c-1.09,0-1.98-0.89-1.98-1.98V16.01c0-1.13,0.91-2.04,2.04-2.04h1.93v71.72
		C57.58,86.77,56.69,87.67,55.6,87.67z"/>
	<path class="st5" d="M62.6,87.67L62.6,87.67c-1.1,0-1.98-0.89-1.98-1.98V27.35c0-1.13,0.91-2.04,2.04-2.04h1.93v60.38
		C64.58,86.78,63.7,87.67,62.6,87.67z"/>
	<g>
		<path class="st6" d="M48.6,87.67L48.6,87.67c-1.1,0-1.98-0.89-1.98-1.98V4.61c0-1.1,0.89-1.98,1.98-1.98h1.98v83.06
			C50.58,86.78,49.7,87.67,48.6,87.67z"/>
		<path class="st6" d="M49.56,87.38L49.56,87.38c0.95-0.55,1.27-1.76,0.73-2.71L35.27,58.65c-0.55-0.95-1.76-1.27-2.71-0.73l0,0
			c-0.95,0.55-1.27,1.76-0.73,2.71l15.02,26.02C47.4,87.6,48.61,87.93,49.56,87.38z"/>
	</g>
</g>
</svg>
