<?xml version="1.0" encoding="utf-8"?>
<!-- Generator: Adobe Illustrator 24.1.0, SVG Export Plug-In . SVG Version: 6.00 Build 0)  -->
<svg version="1.1" id="图层_1" xmlns="http://www.w3.org/2000/svg" xmlns:xlink="http://www.w3.org/1999/xlink" x="0px" y="0px"
	 viewBox="0 0 187.25 43.34" style="enable-background:new 0 0 187.25 43.34;" xml:space="preserve">
<style type="text/css">
	.st0{fill:#474543;}
</style>
<g>
	<path class="st0" d="M10.46,5.9H0V2.64h10.46V0.05h4.03v2.59h13.82V0.05h4.03v2.59h10.51V5.9H32.35v2.78h-4.03V5.9H14.5v2.78h-4.03
		V5.9z M35.14,43.34c0.77-0.99,1.35-2.13,1.75-3.41c0.4-1.28,0.6-2.59,0.6-3.94v-5.42H23.38v5.52h5.42l-1.1-3.98h3.65
		c0.35,0.96,0.69,2.07,1.01,3.34c0.32,1.26,0.58,2.5,0.77,3.72H9.98V36.1h9.6v-5.52H5.62v12.77H1.82V27.5h17.76v-2.69H4.8V9.79
		h33.41v15.02H23.38v2.69h17.95V36c-0.03,1.31-0.16,2.63-0.38,3.96c-0.22,1.33-0.66,2.46-1.3,3.38H35.14z M8.5,15.98h11.09v-3.5H8.5
		V15.98z M8.5,22.18h11.09v-3.5H8.5V22.18z M23.38,12.48v3.5h11.04v-3.5H23.38z M34.42,22.18v-3.5H23.38v3.5H34.42z"/>
	<path class="st0" d="M64.8,1.15v3.46h-2.26v29.23l1.58-0.29v3.55l-1.58,0.24v6h-3.31v-5.47L47.9,39.65v-3.46l1.54-0.24V4.61h-1.68
		V1.15H64.8z M52.8,12.38h6.43V4.61H52.8V12.38z M52.8,23.42h6.43v-7.63H52.8V23.42z M52.8,35.42l6.43-1.06v-7.58H52.8V35.42z
		 M64.61,20.06c0.93-1.6,1.79-3.14,2.59-4.61c0.8-1.47,1.52-2.93,2.16-4.37h-5.62c0.48-0.96,0.94-1.94,1.37-2.95
		c0.43-1.01,0.84-2,1.22-2.98c0.38-0.98,0.73-1.9,1.03-2.78C67.67,1.5,67.92,0.7,68.11,0h3.5c-0.16,0.54-0.37,1.17-0.62,1.87
		c-0.26,0.7-0.53,1.42-0.82,2.16c-0.29,0.74-0.58,1.46-0.86,2.18c-0.29,0.72-0.56,1.38-0.82,1.99h2.11
		c0.29-0.74,0.56-1.45,0.82-2.14c0.26-0.69,0.5-1.37,0.72-2.04h3.46c-0.86,2.37-1.8,4.68-2.81,6.94c-1.01,2.26-2.06,4.31-3.14,6.17
		h4.51c-0.13-1.02-0.26-2.02-0.41-2.98c-0.14-0.96-0.3-1.92-0.46-2.88h2.83c0.32,1.47,0.58,2.93,0.79,4.37
		c0.21,1.44,0.39,2.91,0.55,4.42H64.61z M69.74,43.34c1.09-1.44,1.89-2.71,2.4-3.82c0.51-1.1,0.85-2.31,1.01-3.62h-7.58V22.37h3.17
		v10.42h4.51V21.79h3.26v12.34c0,1.79-0.24,3.48-0.72,5.06c-0.48,1.58-1.17,2.97-2.06,4.15H69.74z M77.62,20.06
		c0.93-1.5,1.78-3.01,2.57-4.51c0.78-1.5,1.51-2.99,2.18-4.46h-6.05c1.06-2.05,1.96-4.03,2.71-5.95S80.35,1.5,80.74,0h3.5
		c-0.38,1.34-0.85,2.71-1.39,4.08c-0.54,1.38-1.14,2.75-1.78,4.13h2.5c0.32-0.74,0.6-1.46,0.84-2.16c0.24-0.7,0.47-1.38,0.7-2.02
		h3.31c-0.83,2.5-1.73,4.84-2.69,7.03c-0.96,2.19-1.98,4.22-3.07,6.07h5.33c-0.16-1.02-0.3-2.01-0.43-2.95
		c-0.13-0.94-0.27-1.91-0.43-2.9h2.93c0.29,1.41,0.54,2.84,0.77,4.3c0.22,1.46,0.42,2.95,0.58,4.49H77.62z M79.82,21.79h3.22v11.18
		h4.42V22.37h3.12V36.1h-7.54v7.25h-3.22V21.79z"/>
	<path class="st0" d="M103.54,14.83H96v-3.5h7.54V5.38l-7.01,0.48V2.3L114,1.06v3.6l-6.53,0.48v6.19h7.25v3.5h-7.25v28.51h-3.94
		V14.83z M96.05,42.29c0.26-1.95,0.5-4.05,0.72-6.29c0.22-2.24,0.42-4.49,0.6-6.74c0.18-2.26,0.32-4.45,0.43-6.58
		c0.11-2.13,0.2-4.09,0.26-5.88h3.55c-0.13,4.03-0.34,8.21-0.62,12.53c-0.29,4.32-0.67,8.64-1.15,12.96H96.05z M110.83,40.32
		c-0.06-1.82-0.14-3.74-0.22-5.76c-0.08-2.02-0.18-4.05-0.31-6.1c-0.13-2.05-0.27-4.06-0.43-6.05c-0.16-1.98-0.34-3.86-0.53-5.62
		h3.46c0.19,1.76,0.38,3.61,0.55,5.54c0.17,1.94,0.34,3.91,0.48,5.93c0.14,2.02,0.26,4.04,0.36,6.07c0.1,2.03,0.19,4.02,0.29,5.98
		H110.83z M129.6,30.05l-14.06,1.44v-3.7l14.06-1.44V0h3.98v25.92l5.52-0.58v3.74l-5.52,0.58v13.68h-3.98V30.05z M121.25,24.14
		c-0.61-1.73-1.31-3.58-2.11-5.54c-0.8-1.97-1.66-3.88-2.59-5.74h4.22c0.86,1.73,1.7,3.56,2.5,5.5c0.8,1.94,1.54,3.86,2.21,5.78
		H121.25z M122.78,12.24c-0.54-1.73-1.19-3.52-1.94-5.38c-0.75-1.86-1.59-3.74-2.52-5.66h4.27c0.83,1.66,1.62,3.42,2.38,5.28
		s1.43,3.78,2.04,5.76H122.78z"/>
	<path class="st0" d="M149.42,7.82V0.05h3.84v7.78h5.23v3.55h-5.23v10.46l5.14-1.15v3.74l-5.14,1.15v5.81
		c0.03,2.72-0.18,5.02-0.62,6.89s-1.12,3.56-2.02,5.06h-4.85c0.61-0.93,1.14-1.82,1.61-2.69s0.85-1.76,1.15-2.69
		c0.3-0.93,0.53-1.92,0.67-2.98c0.14-1.06,0.22-2.26,0.22-3.6v-4.94l-5.81,1.3V24l5.81-1.3V11.38h-5.66V7.82H149.42z M180.91,43.34
		c-2.5-1.82-4.96-3.98-7.39-6.48c-1.28,1.31-2.54,2.51-3.79,3.6c-1.25,1.09-2.45,2.05-3.6,2.88h-6.48c1.95-1.41,3.86-2.91,5.74-4.51
		s3.67-3.3,5.4-5.09c-2.05-2.43-3.94-5.11-5.66-8.04c-1.73-2.93-3.25-6.1-4.56-9.53h10.85V9.36h-11.42v-3.6h11.42V0.05h3.98v5.71
		h11.71v3.6h-11.71v6.82h11.04c-1.12,3.46-2.58,6.65-4.37,9.58c-1.79,2.93-3.71,5.61-5.76,8.04c1.7,1.76,3.46,3.43,5.3,5.02
		c1.84,1.58,3.72,3.1,5.64,4.54H180.91z M166.27,19.54c0.93,1.95,2,3.86,3.22,5.71c1.22,1.86,2.58,3.66,4.08,5.42
		c1.54-1.82,2.9-3.66,4.1-5.52c1.2-1.86,2.18-3.73,2.95-5.62H166.27z"/>
</g>
</svg>
